HIERARCHY
ROOT SimulationBone
{
	OFFSET 0.000000 0.000000 0.000000
	CHANNELS 6 Xposition Yposition Zposition Zrotation Yrotation Xrotation 
	JOINT Hips
	{
		OFFSET 0.000000 0.000000 0.000000
		CHANNELS 6 Xposition Yposition Zposition Zrotation Yrotation Xrotation 
		JOINT LeftUpLeg
		{
			OFFSET 0.103458 1.857831 10.548505
			CHANNELS 3 Zrotation Yrotation Xrotation
			JOINT LeftLeg
			{
				OFFSET 43.500000 -0.000031 0.000002
				CHANNELS 3 Zrotation Yrotation Xrotation
				JOINT LeftFoot
				{
					OFFSET 42.372200 0.000023 0.000003
					CHANNELS 3 Zrotation Yrotation Xrotation
					JOINT LeftToe
					{
						OFFSET 17.299997 -0.000001 -0.000010
						CHANNELS 3 Zrotation Yrotation Xrotation
						End Site
						{
							OFFSET 0.000000 0.000000 0.000000
						}
					}
				}
			}
		}
		JOINT RightUpLeg
		{
			OFFSET 0.103457 1.857828 -10.548510
			CHANNELS 3 Zrotation Yrotation Xrotation
			JOINT RightLeg
			{
				OFFSET 43.500046 -0.000015 0.000002
				CHANNELS 3 Zrotation Yrotation Xrotation
				JOINT RightFoot
				{
					OFFSET 42.372261 -0.000008 0.000023
					CHANNELS 3 Zrotation Yrotation Xrotation
					JOINT RightToe
					{
						OFFSET 17.299990 -0.000007 -0.000002
						CHANNELS 3 Zrotation Yrotation Xrotation
						End Site
						{
							OFFSET 0.000000 0.000000 0.000000
						}
					}
				}
			}
		}
		JOINT Spine
		{
			OFFSET 6.901967 -2.603726 -0.000001
			CHANNELS 3 Zrotation Yrotation Xrotation
			JOINT Spine1
			{
				OFFSET 12.588100 -0.000009 -0.000003
				CHANNELS 3 Zrotation Yrotation Xrotation
				JOINT Spine2
				{
					OFFSET 12.343202 0.000008 0.000008
					CHANNELS 3 Zrotation Yrotation Xrotation
					JOINT Neck
					{
						OFFSET 25.832897 -0.000015 -0.000004
						CHANNELS 3 Zrotation Yrotation Xrotation
						JOINT Head
						{
							OFFSET 11.766609 0.000013 -0.000006
							CHANNELS 3 Zrotation Yrotation Xrotation
							End Site
							{
								OFFSET 0.000000 0.000000 0.000000
							}
						}
					}
					JOINT LeftShoulder
					{
						OFFSET 19.745911 -1.480373 6.000098
						CHANNELS 3 Zrotation Yrotation Xrotation
						JOINT LeftArm
						{
							OFFSET 11.284123 -0.000007 -0.000032
							CHANNELS 3 Zrotation Yrotation Xrotation
							JOINT LeftForeArm
							{
								OFFSET 33.000050 0.000005 0.000031
								CHANNELS 3 Zrotation Yrotation Xrotation
								JOINT LeftHand
								{
									OFFSET 25.200008 0.000017 0.000013
									CHANNELS 3 Zrotation Yrotation Xrotation
									End Site
									{
										OFFSET 0.000000 0.000000 0.000000
									}
								}
							}
						}
					}
					JOINT RightShoulder
					{
						OFFSET 19.746092 -1.480379 -6.000077
						CHANNELS 3 Zrotation Yrotation Xrotation
						JOINT RightArm
						{
							OFFSET 11.284136 -0.000017 -0.000017
							CHANNELS 3 Zrotation Yrotation Xrotation
							JOINT RightForeArm
							{
								OFFSET 33.000099 0.000019 0.000015
								CHANNELS 3 Zrotation Yrotation Xrotation
								JOINT RightHand
								{
									OFFSET 25.199780 0.000140 0.000408
									CHANNELS 3 Zrotation Yrotation Xrotation
									End Site
									{
										OFFSET 0.000000 0.000000 0.000000
									}
								}
							}
						}
					}
				}
			}
		}
	}
}
MOTION
Frames: 6
Frame Time: 0.016667
169.316819 0.000000 114.066364 0.000000 49.205488 0.000000 -4.351092 86.094910 2.935657 87.465853 5.777945 -177.068618 141.540944 0.041200 162.125523 -29.372370 -0.887961 -16.074090 73.984314 10.744992 -2.524310 21.454551 0.003099 0.000001 -168.158807 -0.492291 -162.638333 -15.290606 4.499836 7.156957 87.793885 -2.791399 13.787782 21.454555 -0.003112 -0.000018 8.800657 0.590238 1.518884 7.603318 1.079537 3.073299 7.285654 1.098204 3.066733 -2.467683 7.001432 7.001214 -22.577568 -3.193364 9.984282 175.203859 -80.216979 3.302083 -8.468448 47.206636 36.381828 -30.023926 -11.151601 0.981743 10.339072 -6.608714 11.216841 178.544492 75.396555 -0.045578 -18.840627 -53.299338 -29.207288 -34.223987 17.201613 -1.486418 7.402174 2.581374 -5.297798 
170.040971 0.000000 113.291735 0.000000 51.076667 0.000000 -4.284687 85.738932 3.037793 87.485721 5.992349 -177.488044 142.032073 0.572666 161.995893 -29.139356 -0.514569 -17.384829 75.066352 12.016100 -1.158103 21.454549 0.003090 -0.000001 -167.324650 -1.427753 -162.887390 -15.651443 4.342207 7.915666 87.677279 -3.212296 14.362924 21.454554 -0.003110 -0.000018 8.790303 0.547426 1.596718 7.582003 0.989209 3.225888 7.264408 1.008792 3.219872 -1.995718 6.931311 6.903130 -22.567100 -2.845012 9.699151 176.839745 -80.381922 1.638359 -7.538650 45.924721 38.654780 -30.054435 -11.041401 0.975523 9.675831 -5.727730 11.972430 178.737578 75.262023 0.149211 -19.284360 -54.003242 -28.032332 -35.477008 17.779340 -1.552183 7.753627 3.042358 -6.118614 
170.753087 0.000000 112.463384 0.000000 52.970321 0.000000 -4.188180 85.392403 3.112093 87.467925 6.213538 -178.181528 142.457815 0.670815 161.191645 -29.889450 -0.189659 -17.879193 76.044088 12.679423 0.216701 21.454550 0.003081 -0.000003 -166.895058 -2.118609 -162.943916 -16.851369 4.040208 8.302424 87.372264 -3.296837 15.259500 21.454557 -0.003109 -0.000018 8.746972 0.493317 1.676647 7.494295 0.877183 3.381723 7.176768 0.897706 3.376384 -1.357377 6.912682 6.996471 -22.609330 -2.744689 9.719788 178.709646 -80.368582 -0.258708 -6.450524 44.776947 40.360796 -29.974079 -10.939819 0.967023 9.281411 -4.778145 12.842839 179.170096 75.150894 0.589436 -19.520937 -54.799692 -26.719713 -36.947385 18.284903 -1.621002 7.691320 3.219914 -6.951742 
171.449840 0.000000 111.581922 0.000000 54.884676 0.000000 -4.108407 85.151212 3.096426 87.388204 6.252661 -179.120212 142.943458 0.715608 159.825899 -30.810203 0.226422 -17.856505 77.012374 12.878781 1.295828 21.454551 0.003082 -0.000003 -166.984953 -2.202810 -161.872267 -19.082583 3.508542 7.780935 86.652742 -2.614313 16.526860 21.454560 -0.003111 -0.000018 8.684383 0.397371 1.733961 7.366497 0.683740 3.489679 7.049024 0.704927 3.485500 -0.921647 7.038578 7.217725 -22.188219 -3.065048 10.065846 -179.626836 -80.239622 -1.944707 -5.085245 43.901953 41.250710 -29.714349 -10.695128 0.945577 9.053312 -4.016432 14.085587 179.502703 75.016939 0.927251 -19.531731 -55.600998 -25.604703 -38.485469 18.788835 -1.694475 6.980507 3.282600 -7.712126 
172.127228 0.000000 110.649318 0.000000 56.818337 0.000000 -4.013973 84.955688 3.035340 87.346504 6.147978 179.844435 143.504678 0.797903 158.375708 -31.695406 0.524462 -17.495721 77.808892 13.062632 3.303919 21.454553 0.003090 -0.000002 -167.397514 -1.809495 -160.501359 -22.113620 3.040014 6.962614 85.497684 -1.676988 17.490009 21.454563 -0.003113 -0.000017 8.626085 0.275496 1.733577 7.246130 0.442098 3.480960 6.928666 0.463245 3.478233 -0.576879 7.029409 7.594517 -21.626583 -3.473081 10.576965 -177.453150 -80.029388 -4.148414 -3.664215 43.306325 41.723886 -29.218862 -10.456781 0.921467 9.019068 -3.389041 15.239790 179.429684 74.861779 0.849767 -19.266235 -56.377390 -24.647485 -40.293204 19.335854 -1.776193 6.214422 3.033415 -8.898661 
172.783553 0.000000 109.669978 0.000000 58.770914 0.000000 -3.878689 84.735204 2.982297 87.436541 5.972091 178.858993 144.138729 0.946241 157.311774 -32.524329 0.483497 -16.947926 78.365850 13.555702 7.140947 21.454553 0.003098 0.000000 -167.944522 -1.150479 -159.752701 -25.709172 2.906680 6.486388 83.862840 -1.053729 17.592419 21.454564 -0.003112 -0.000017 8.592310 0.148230 1.652868 7.174629 0.193913 3.311700 6.857111 0.214040 3.310473 -0.141893 6.633111 8.134637 -21.322725 -3.644197 11.095162 -174.340249 -79.744334 -7.307217 -2.436266 42.955897 42.202549 -28.460997 -10.378204 0.903519 9.219305 -2.820631 15.843726 178.911033 74.711192 0.316184 -18.720007 -57.120786 -23.747292 -42.542893 19.920748 -1.873934 5.981140 2.340666 -10.893804 
